<?xml version="1.0" encoding="UTF-8" standalone="no"?>
<svg
   xmlns:dc="http://purl.org/dc/elements/1.1/"
   xmlns:cc="http://creativecommons.org/ns#"
   xmlns:rdf="http://www.w3.org/1999/02/22-rdf-syntax-ns#"
   xmlns:svg="http://www.w3.org/2000/svg"
   xmlns="http://www.w3.org/2000/svg"
   xmlns:sodipodi="http://sodipodi.sourceforge.net/DTD/sodipodi-0.dtd"
   xmlns:inkscape="http://www.inkscape.org/namespaces/inkscape"
   width="11"
   height="21"
   viewBox="0 0 11 21"
   version="1.1"
   id="svg18"
   sodipodi:docname="facebook.svg"
   inkscape:version="0.92.4 (f8dce91, 2019-08-02)">
  <metadata
     id="metadata22">
    <rdf:RDF>
      <cc:Work
         rdf:about="">
        <dc:format>image/svg+xml</dc:format>
        <dc:type
           rdf:resource="http://purl.org/dc/dcmitype/StillImage" />
      </cc:Work>
    </rdf:RDF>
  </metadata>
  <sodipodi:namedview
     pagecolor="#ffffff"
     bordercolor="#666666"
     borderopacity="1"
     objecttolerance="10"
     gridtolerance="10"
     guidetolerance="10"
     inkscape:pageopacity="0"
     inkscape:pageshadow="2"
     inkscape:window-width="1920"
     inkscape:window-height="1022"
     id="namedview20"
     showgrid="false"
     inkscape:zoom="22.47619"
     inkscape:cx="6.8376665"
     inkscape:cy="8.7327563"
     inkscape:window-x="0"
     inkscape:window-y="0"
     inkscape:window-maximized="1"
     inkscape:current-layer="svg18" />
  <title
     id="title2">Path</title>
  <desc
     id="desc4">Created using Figma</desc>
  <defs
     id="defs16">
    <linearGradient
       id="paint0_linear"
       x1="0"
       y1="0"
       x2="1"
       y2="0"
       gradientUnits="userSpaceOnUse"
       gradientTransform="matrix(11.0728 -31.6601 14.7723 23.7313 0.226194 22.4841)">
      <stop
         offset="0"
         stop-color="#F7618B"
         id="stop10" />
      <stop
         offset="1"
         stop-color="#2A7AFF"
         id="stop12" />
    </linearGradient>
    <path
       id="path0_fill_facebook"
       fill-rule="evenodd"
       d="M 6.19278 9.97938L 8.94654 9.97938L 9.31258 6.53895L 6.19278 6.53895L 6.19704 4.81802C 6.19704 3.92138 6.28216 3.44043 7.57179 3.44043L 9.29272 3.44043L 9.29272 0L 6.53753 0C 3.22904 0 2.06284 1.66985 2.06284 4.47469L 2.06284 6.53895L 0 6.53895L 0 9.97938L 2.06284 9.97938L 2.06284 19.9588L 6.19278 19.9588L 6.19278 9.97938Z" />
  </defs>
  <path
     style="opacity:0.97441861;fill:#ff0000;fill-opacity:1;stroke:none;stroke-width:0.08898305;stroke-opacity:1"
     d="M 4.8459746,8.1274936 C 2.6506632,4.597932 2.7506285,4.8397754 2.9582248,3.5605133 3.1001931,2.6856672 3.3694318,2.0766018 3.8434735,1.5579248 4.2187439,1.1473191 5.0720149,0.60508475 5.3428819,0.60508475 c 0.1413166,0 2.1030011,3.23399945 1.9854522,3.27318245 C 7.0541728,3.9696543 6.959322,4.4194587 6.959322,5.6282082 v 1.2056901 l 0.9565678,0.010528 c 1.3378571,0.014724 1.4264498,0.042925 1.7404149,0.5539958 L 9.9211102,7.8294714 9.8061824,9.0201707 9.6912547,10.21087 l -1.3882122,0.02444 -1.388212,0.02444 -0.044491,0.525466 -0.044492,0.525467 z"
     id="path829"
     inkscape:connector-curvature="0" />
  <path
     style="opacity:0.97441861;fill:#ff5555;fill-opacity:1;stroke:none;stroke-width:0.08898305;stroke-opacity:1"
     d="m 4.8459746,15.840793 -1.9798729,-3.1719 v -1.22682 -1.226819 L 2.0875,10.212442 1.3088983,10.209629 1.0641949,9.8065187 C 0.82715779,9.4160373 0.81949153,9.3631585 0.81949153,8.1186533 V 6.8338983 H 1.8427966 2.8661017 L 2.8684428,5.832839 2.870784,4.8317797 3.2035342,5.454661 c 0.3916297,0.7330987 3.3570937,5.530653 3.5670988,5.770884 0.1261228,0.144276 0.1475337,0.568123 0.1708115,3.381356 0.014638,1.769023 -0.00538,3.484016 -0.044492,3.811098 l -0.071105,0.594694 z"
     id="path835"
     inkscape:connector-curvature="0" />
  <path
     style="opacity:0.97441861;fill:#ff0000;fill-opacity:1;stroke:none;stroke-width:0.08898305;stroke-opacity:1"
     d="m 2.8661017,16.488559 c 0,-2.031038 0.016034,-3.692796 0.03563,-3.692796 0.019597,0 0.8884548,1.371451 1.9307957,3.047669 1.0423409,1.676218 1.9272606,3.061017 1.9664882,3.077331 0.039228,0.01631 0.071323,0.306621 0.071323,0.645127 v 0.615466 H 4.8682203 2.8661017 Z"
     id="path839"
     inkscape:connector-curvature="0" />
  <path
     style="opacity:0.97441861;fill:#ff0000;fill-opacity:1;stroke:none;stroke-width:0.08898305;stroke-opacity:1"
     d="M 7.0513305,3.2168706 C 6.8817021,2.8858466 6.4541431,2.163349 6.1011993,1.6113203 5.7482556,1.0592915 5.4866187,0.59089332 5.5197841,0.57043532 5.7433321,0.43254014 6.8774179,0.33813559 8.3104103,0.33813559 H 9.9847458 V 2.0288136 3.7194915 H 8.928072 c -0.5811705,0 -1.1717955,0.022329 -1.3125,0.04962 -0.2410052,0.046746 -0.2736939,0.014752 -0.5642415,-0.5522409 z"
     id="path841"
     inkscape:connector-curvature="0" />
  <path
     style="opacity:0.97441861;fill:#ff0000;fill-opacity:1;stroke:none;stroke-width:0.08898305;stroke-opacity:1"
     d=""
     id="path843"
     inkscape:connector-curvature="0" />
  <path
     style="opacity:0.97441861;fill:#280b0b;fill-opacity:1;stroke:none;stroke-width:0.08898305;stroke-opacity:1"
     d="M 9.6809452,7.3633813 C 9.5497885,7.1651901 9.3542662,6.9675164 9.2464511,6.9241063 9.0939974,6.8627232 9.1542661,6.8439252 9.5175847,6.8395386 l 0.4671611,-0.00564 v 0.4449153 c 0,0.2447033 -0.0147,0.4449152 -0.032667,0.4449152 -0.017967,0 -0.1399769,-0.1621564 -0.2711336,-0.3603478 z"
     id="path845"
     inkscape:connector-curvature="0" />
  <path
     style="opacity:0.97441861;fill:#280b0b;fill-opacity:1;stroke:none;stroke-width:0.08898305;stroke-opacity:1"
     d="M 7.2854867,3.5192797 C 6.5558946,2.3302749 5.6245763,0.71294974 5.6245763,0.63494659 c 0,-0.13171673 0.6033887,-0.19145658 2.6472457,-0.2620965 L 9.9847458,0.3136479 V 2.0165697 3.7194915 H 8.6965429 c -1.2401912,0 -1.2927818,-0.00746 -1.4110562,-0.2002118 z"
     id="path847"
     inkscape:connector-curvature="0" />
  <path
     style="opacity:0.97441861;fill:#280b0b;fill-opacity:1;stroke:none;stroke-width:0.08898305;stroke-opacity:1"
     d="M 6.1804284,17.934534 C 5.8887948,17.481833 5.0237667,16.101722 4.2581436,14.867621 L 2.8661017,12.623802 v -1.20081 -1.200809 L 2.0889625,10.196473 1.3118234,10.170763 1.0897051,9.770339 C 0.88814731,9.4069806 0.86444492,9.2525415 0.83364401,8.1019068 L 0.79970118,6.8338983 H 1.8329014 2.8661017 V 5.8795196 4.9251409 l 0.6491763,1.110099 c 0.357047,0.6105545 1.1879262,1.967397 1.8463983,3.0152056 0.6584721,1.0478085 1.2672962,2.0282225 1.3529423,2.1786965 0.1412843,0.248227 0.1557204,0.609872 0.1557204,3.901038 0,2.081833 -0.034016,3.627447 -0.079834,3.627447 -0.043909,0 -0.3184431,-0.370392 -0.6100766,-0.823093 z"
     id="path849"
     inkscape:connector-curvature="0" />
  <path
     style="opacity:0.97441861;fill:#ff0000;fill-opacity:1;stroke:none;stroke-width:0.08898305;stroke-opacity:1"
     d="M 9.6110396,7.2446781 C 9.3427636,6.9084508 9.3648305,6.8338983 9.7326271,6.8338983 c 0.2348164,0 0.2521187,0.024427 0.2521187,0.3559322 0,0.1957627 -0.030032,0.355931 -0.066737,0.3559296 C 9.881303,7.5457586 9.743167,7.4102717 9.6110396,7.2446781 Z"
     id="path851"
     inkscape:connector-curvature="0" />
  <path
     style="opacity:0.97441861;fill:#ff0000;fill-opacity:1;stroke:none;stroke-width:0.02224576;stroke-opacity:1"
     d="m 2.8267572,13.814506 -0.0042,-3.542637 H 1.799252 0.77594696 l 0.001756,-1.7184856 c 9.6593e-4,-0.9451668 0.005935,-1.7084746 0.0110413,-1.6962394 0.005107,0.012235 0.0177681,0.5678231 0.0281362,1.2346399 0.0220764,1.4198182 0.006424,1.3256823 0.30191044,1.81571 l 0.1760008,0.2918751 0.1465627,0.01385 c 0.080609,0.0076 0.4343672,0.01392 0.7861283,0.014 l 0.6395657,1.58e-4 v 1.230388 c 0,1.047395 0.00486,1.23681 0.032661,1.27357 0.036092,0.04772 0.044638,0.0857 0.015186,0.0675 -0.034368,-0.02124 -0.047608,0.471024 -0.050801,1.888817 -0.00174,0.770815 -0.0099,1.686784 -0.018147,2.035487 -0.00832,0.351711 -0.016861,-0.943373 -0.019191,-2.908634 z"
     id="path853"
     inkscape:connector-curvature="0" />
  <path
     style="opacity:0.97441861;fill:#280b0b;fill-opacity:1;stroke:none;stroke-width:0.04449153;stroke-opacity:1"
     d="M 9.6912824,7.3107955 C 9.4757543,7.044153 9.4161972,6.9229257 9.4896673,6.9004123 9.6644639,6.8468496 9.7682906,6.8405196 9.8655466,6.8774963 9.9667203,6.9159625 9.9732265,6.9375369 9.9608776,7.193612 9.9533676,7.349343 9.9255711,7.4757185 9.8967357,7.4852303 9.868747,7.4944629 9.776293,7.4159672 9.6912824,7.3107955 Z"
     id="path855"
     inkscape:connector-curvature="0" />
</svg>
