<?xml version="1.0" encoding="UTF-8" standalone="no"?>
<svg
   xmlns:dc="http://purl.org/dc/elements/1.1/"
   xmlns:cc="http://creativecommons.org/ns#"
   xmlns:rdf="http://www.w3.org/1999/02/22-rdf-syntax-ns#"
   xmlns:svg="http://www.w3.org/2000/svg"
   xmlns="http://www.w3.org/2000/svg"
   xmlns:sodipodi="http://sodipodi.sourceforge.net/DTD/sodipodi-0.dtd"
   xmlns:inkscape="http://www.inkscape.org/namespaces/inkscape"
   width="22"
   height="18"
   viewBox="0 0 22 18"
   version="1.1"
   id="svg18"
   sodipodi:docname="twitter.svg"
   inkscape:version="0.92.4 (f8dce91, 2019-08-02)">
  <metadata
     id="metadata22">
    <rdf:RDF>
      <cc:Work
         rdf:about="">
        <dc:format>image/svg+xml</dc:format>
        <dc:type
           rdf:resource="http://purl.org/dc/dcmitype/StillImage" />
      </cc:Work>
    </rdf:RDF>
  </metadata>
  <sodipodi:namedview
     pagecolor="#ffffff"
     bordercolor="#666666"
     borderopacity="1"
     objecttolerance="10"
     gridtolerance="10"
     guidetolerance="10"
     inkscape:pageopacity="0"
     inkscape:pageshadow="2"
     inkscape:window-width="1920"
     inkscape:window-height="1022"
     id="namedview20"
     showgrid="false"
     inkscape:zoom="37.083822"
     inkscape:cx="23.572897"
     inkscape:cy="6.2827812"
     inkscape:window-x="0"
     inkscape:window-y="0"
     inkscape:window-maximized="1"
     inkscape:current-layer="svg18" />
  <title
     id="title2">Path</title>
  <desc
     id="desc4">Created using Figma</desc>
  <defs
     id="defs16">
    <linearGradient
       id="paint0_linear"
       x1="0"
       y1="0"
       x2="1"
       y2="0"
       gradientUnits="userSpaceOnUse"
       gradientTransform="matrix(24.7085 -26.7887 32.9638 20.0798 0.504741 19.0245)">
      <stop
         offset="0"
         stop-color="#F7618B"
         id="stop10" />
      <stop
         offset="1"
         stop-color="#2A7AFF"
         id="stop12" />
    </linearGradient>
    <path
       id="path0_fill_twitter"
       fill-rule="evenodd"
       d="M 20.7806 1.99891C 20.016 2.33812 19.1949 2.56695 18.3321 2.6706C 19.2124 2.14294 19.8895 1.30703 20.2072 0.310941C 19.3834 0.799564 18.4707 1.15493 17.5002 1.34607C 16.7222 0.51689 15.6144 0 14.3881 0C 12.0325 0 10.1238 1.90872 10.1238 4.26299C 10.1238 4.59682 10.1615 4.92257 10.2341 5.23485C 6.6913 5.05717 3.54958 3.35978 1.44702 0.780719C 1.08089 1.40933 0.869559 2.14159 0.869559 2.92366C 0.869559 4.40298 1.62201 5.70732 2.76617 6.47189C 2.06756 6.45035 1.41068 6.25786 0.835907 5.93885C 0.834561 5.95635 0.834561 5.97385 0.834561 5.99269C 0.834561 8.05756 2.30447 9.78187 4.25492 10.1722C 3.89686 10.2705 3.51996 10.323 3.1323 10.323C 2.85635 10.323 2.58983 10.2961 2.33004 10.2463C 2.87251 11.9396 4.44606 13.1726 6.31171 13.2063C 4.85257 14.3504 3.01519 15.0315 1.01763 15.0315C 0.673033 15.0315 0.333825 15.0113 0 14.9723C 1.88719 16.1811 4.12839 16.8878 6.5365 16.8878C 14.3773 16.8878 18.6659 10.3916 18.6659 4.757C 18.6659 4.57259 18.6619 4.38818 18.6538 4.20511C 19.487 3.60477 20.2098 2.85366 20.7806 1.99891Z" />
  </defs>
  <path
     style="opacity:0.97441861;fill:#ff0000;fill-opacity:1;stroke:#ff0e0e;stroke-width:0.07627118;stroke-opacity:1"
     d="m 14.825155,6.1403573 c -3.053993,-1.87802 -3.87064,-2.4128249 -3.870762,-2.5348819 -8.6e-5,-0.085082 0.121803,-0.4091793 0.270864,-0.7202168 0.347363,-0.724826 1.159782,-1.5492044 1.87087,-1.89841201 0.535297,-0.26287863 1.362658,-0.46555384 1.900483,-0.46555384 0.930698,0 2.060079,0.42500786 2.730051,1.02737105 l 0.378611,0.3404036 0.52832,-0.1387058 0.528319,-0.1387058 0.44943,0.2863191 0.44943,0.2863192 -0.301148,0.2931447 c -0.165632,0.1612297 -0.421276,0.3875257 -0.568098,0.5028801 l -0.266949,0.2097353 0.381356,-0.050042 c 0.209746,-0.027523 0.672441,-0.1298564 1.028213,-0.2274076 0.355771,-0.097551 0.676017,-0.148205 0.711659,-0.1125639 0.08996,0.089958 -0.763437,1.0626577 -1.306956,1.4896709 l -0.449051,0.3527947 -0.05288,0.9518309 c -0.064,1.1518584 -0.367249,2.9391675 -0.497045,2.9294948 -0.02426,-0.00181 -1.785878,-1.0743715 -3.914712,-2.3834748 z"
     id="path829"
     inkscape:connector-curvature="0" />
  <path
     style="opacity:0.97441861;fill:#ff0000;fill-opacity:1;stroke:#ff0e0e;stroke-width:0.07627118;stroke-opacity:1"
     d="M 7.1908774,16.000756 5.2198906,14.791602 5.5510469,14.622816 c 0.4888261,-0.249147 1.3608175,-0.836202 1.3608175,-0.916149 0,-0.03816 -0.1287076,-0.07022 -0.2860169,-0.07124 C 5.8131842,13.630126 4.7552109,13.145483 4.059205,12.459681 3.6177604,12.024707 3.1824672,11.380799 3.0635559,10.986864 c -0.051024,-0.169034 -0.041564,-0.17161 0.630245,-0.17161 0.7595607,0 1.1773977,-0.06065 1.1148666,-0.161828 -0.022769,-0.03684 -0.104043,-0.06698 -0.1806082,-0.06698 -0.076565,0 -0.4263403,-0.142861 -0.7772783,-0.317468 C 2.4981722,9.59599 1.4966102,8.1035386 1.4966102,6.760967 c 0,-0.1918866 0.023655,-0.2236265 0.1334745,-0.1790914 0.509896,0.206779 1.0251409,0.3524438 1.3880756,0.3924226 L 3.4415254,7.0209338 3.0220339,6.6242751 C 2.7913136,6.4061128 2.6549937,6.2433366 2.7191008,6.2625502 2.8351288,6.2973251 15.281592,13.90918 15.404154,14.020319 c 0.03538,0.03208 -0.09764,0.207857 -0.295595,0.390614 -1.491418,1.376917 -3.499733,2.345106 -5.717881,2.756536 -0.1963823,0.03642 -0.5081779,-0.128942 -2.1998006,-1.166713 z"
     id="path831"
     inkscape:connector-curvature="0" />
  <path
     style="opacity:0.97441861;fill:#2b0000;fill-opacity:1;stroke:#ff0e0e;stroke-width:0.07627118;stroke-opacity:1"
     d="M 5.8822034,17.296316 C 4.4707592,17.136758 3.0711009,16.71821 1.7254237,16.053289 l -0.9533898,-0.471086 1.0677966,-0.04715 c 1.1960344,-0.05281 1.5941313,-0.123755 2.6124993,-0.465583 l 0.7057196,-0.236883 1.1629245,0.713359 c 0.6396084,0.392347 1.5309884,0.925626 1.9808444,1.185065 l 0.81792,0.471707 -0.2840217,0.04811 c -0.5172193,0.08761 -2.3334126,0.115582 -2.9535132,0.04548 z"
     id="path833"
     inkscape:connector-curvature="0" />
  <path
     style="opacity:0.97441861;fill:#2b0000;fill-opacity:1;stroke:#3d3d3d;stroke-width:0.07627118;stroke-opacity:1"
     d="M 15.457676,14.045087 C 15.45396,13.950037 14.298862,13.222371 9.2762712,10.15105 4.1076852,6.9904519 2.7198156,6.1625359 2.6233154,6.1823139 2.4738071,6.2129561 1.8924306,5.2744442 1.7248784,4.7319733 1.4122865,3.7199185 1.4630176,2.6572569 1.868707,1.7192044 l 0.1569899,-0.362999 0.8241088,0.8206261 c 2.115375,2.1064356 4.4761367,3.2107255 7.6176453,3.5632944 l 0.390332,0.043807 -0.03829,-0.5351866 c -0.02106,-0.2943526 -0.0167,-0.5351866 0.0097,-0.5351866 0.04678,0 7.510915,4.5543402 7.612758,4.6450259 0.07986,0.071107 -0.415579,1.2277304 -0.854235,1.9942704 -0.217992,0.380933 -0.593651,0.956381 -0.834798,1.278773 -0.52374,0.700195 -1.290415,1.536845 -1.295238,1.413458 z"
     id="path835"
     inkscape:connector-curvature="0" />
  <path
     style="opacity:0.97441861;fill:#2b0000;fill-opacity:1;stroke:#ff0e0e;stroke-width:0.07627118;stroke-opacity:1"
     d="M 19.706356,1.8751212 C 19.507097,1.751202 19.344747,1.6269742 19.345578,1.5990594 c 0.0026,-0.087921 1.371371,-0.69242177 1.371371,-0.60565559 0,0.0986787 -0.513636,1.03029629 -0.592959,1.07549119 C 20.09355,2.086239 19.905614,1.99904 19.706356,1.8751212 Z"
     id="path837"
     inkscape:connector-curvature="0" />
  <path
     style="opacity:0.97441861;fill:#2b0000;fill-opacity:1;stroke:#5e2828;stroke-width:0.07627118;stroke-opacity:1"
     d="M 16.483898,8.0630298 C 15.39322,7.3913051 13.668538,6.3404381 12.651271,5.7277699 10.849353,4.6425304 10.801695,4.6074971 10.801695,4.3681427 c 0,-0.1351268 0.02114,-0.3514092 0.04699,-0.4806276 0.04354,-0.2176732 0.05615,-0.2257388 0.171611,-0.1097297 0.222105,0.2231589 4.751789,3.0620615 7.085743,4.4408695 0.304889,0.1801159 0.572473,0.3568201 0.594634,0.3926759 0.04689,0.075877 -0.121656,0.6798242 -0.188591,0.6757582 C 18.487262,9.285579 17.574578,8.7347546 16.4839,8.0630298 Z"
     id="path839"
     inkscape:connector-curvature="0" />
</svg>
