<?xml version="1.0" encoding="UTF-8" standalone="no"?>
<!-- Created with Inkscape (http://www.inkscape.org/) -->

<svg
   xmlns:osb="http://www.openswatchbook.org/uri/2009/osb"
   xmlns:dc="http://purl.org/dc/elements/1.1/"
   xmlns:cc="http://creativecommons.org/ns#"
   xmlns:rdf="http://www.w3.org/1999/02/22-rdf-syntax-ns#"
   xmlns:svg="http://www.w3.org/2000/svg"
   xmlns="http://www.w3.org/2000/svg"
   xmlns:sodipodi="http://sodipodi.sourceforge.net/DTD/sodipodi-0.dtd"
   xmlns:inkscape="http://www.inkscape.org/namespaces/inkscape"
   width="210mm"
   height="210mm"
   viewBox="0 0 210 210"
   version="1.1"
   id="svg873"
   inkscape:version="0.92.4 (f8dce91, 2019-08-02)"
   sodipodi:docname="redo.svg">
  <defs
     id="defs867">
    <linearGradient
       id="linearGradient2890"
       osb:paint="solid">
      <stop
         style="stop-color:#0d0d0d;stop-opacity:1;"
         offset="0"
         id="stop2888" />
    </linearGradient>
  </defs>
  <sodipodi:namedview
     id="base"
     pagecolor="#ffffff"
     bordercolor="#666666"
     borderopacity="1.0"
     inkscape:pageopacity="0.0"
     inkscape:pageshadow="2"
     inkscape:zoom="1.4"
     inkscape:cx="392.97933"
     inkscape:cy="474.32952"
     inkscape:document-units="mm"
     inkscape:current-layer="layer1"
     showgrid="false"
     inkscape:window-width="1920"
     inkscape:window-height="1022"
     inkscape:window-x="1280"
     inkscape:window-y="0"
     inkscape:window-maximized="1" />
  <metadata
     id="metadata870">
    <rdf:RDF>
      <cc:Work
         rdf:about="">
        <dc:format>image/svg+xml</dc:format>
        <dc:type
           rdf:resource="http://purl.org/dc/dcmitype/StillImage" />
        <dc:title></dc:title>
      </cc:Work>
    </rdf:RDF>
  </metadata>
  <g
     inkscape:label="Layer 1"
     inkscape:groupmode="layer"
     id="layer1"
     transform="translate(0,-87)">
    <path
       style="fill:none;fill-opacity:1;stroke:#060606;stroke-width:0.99999994;stroke-opacity:1"
       d="M 645.67433 373.69777 A 224.28572 227.14285 0 0 1 645.71431 377.98655 L 645.71431 377.98655 L 645.71431 377.98655 A 224.28572 227.14285 0 0 1 421.4286 605.1294 A 224.28572 227.14285 0 0 1 197.14288 377.98655 A 224.28572 227.14285 0 0 1 419.99968 150.84831 "
       id="path2899"
       transform="matrix(0.26458333,0,0,0.26458333,0,87)" />
    <path
       inkscape:connector-curvature="0"
       style="fill:none;fill-opacity:1;stroke:#060606;stroke-width:0.24177118;stroke-opacity:1"
       d="m 111.12494,126.91195 0.0898,5.63034 a 54.12184,55.022109 0 0 0 -53.777032,55.02099 54.12184,55.022109 0 0 0 54.121842,55.02211 54.12184,55.022109 0 0 0 54.12129,-55.02211 v 0 0 a 54.12184,55.022109 0 0 0 -0.009,-1.03889 l 5.16282,-0.65019"
       id="path2899-3" />
    <path
       style="fill:#ffffff;fill-opacity:1;stroke:#060606;stroke-width:0.71428573;stroke-opacity:1"
       d="M 401.75649,603.44547 C 310.64623,595.32464 232.51063,530.36905 206.9449,441.49495 c -6.34004,-22.03987 -8.52521,-38.24642 -8.54001,-63.33797 -0.0115,-19.52579 0.7198,-28.301 3.57169,-42.85714 13.64188,-69.62864 57.28783,-127.93747 119.36577,-159.4668 29.12058,-14.79031 58.76853,-22.49935 92.1727,-23.96667 l 5.89285,-0.25885 v 9.78068 9.78069 l -8.75,0.49021 c -101.48541,5.68564 -183.17633,85.18235 -193.37471,188.1807 -1.07844,10.89163 -0.89188,32.6256 0.37488,43.67433 10.21604,89.10449 74.02377,161.10784 159.7734,180.29508 14.84381,3.32143 21.7199,4.10351 39.47643,4.48998 18.92898,0.41199 29.7182,-0.46094 45.70495,-3.69789 72.42223,-14.66385 133.29856,-70.45956 154.94596,-142.01447 5.29392,-17.49894 7.89474,-32.4595 9.06781,-52.16045 0.4252,-7.14103 0.98387,-13.17861 1.24148,-13.41686 0.47268,-0.43717 12.98592,-2.06682 15.86994,-2.06682 1.54721,0 1.55356,0.0582 1.06956,9.82143 -1.84933,37.30488 -9.74597,67.59024 -25.65505,98.39285 -32.40667,62.74465 -92.88751,106.88057 -161.8875,118.13745 -17.47057,2.85021 -38.51495,3.66571 -55.50856,2.15104 z"
       id="path2916"
       inkscape:connector-curvature="0"
       transform="matrix(0.26458333,0,0,0.26458333,0,87)" />
    <path
       style="fill:#ffffff;fill-opacity:1;stroke:#060606;stroke-width:0.71428573;stroke-opacity:1"
       d="M 401.24938,602.70851 C 358.69323,598.618 317.88467,582.04387 283.69362,554.96398 274.0681,547.34041 255.57517,528.84972 248.02678,519.30145 222.64124,487.19026 206.4433,449.4114 200.67909,408.87127 c -0.60736,-4.27162 -0.91261,-15.05639 -0.90976,-32.14286 0.004,-23.7868 0.12906,-26.41032 1.66899,-35 8.70043,-48.53076 29.85675,-89.93826 62.96958,-123.24509 5.69643,-5.72981 13.57143,-12.99959 17.5,-16.15507 36.06188,-28.96541 80.43846,-46.62146 123.57143,-49.1652 3.92857,-0.23169 8.50893,-0.5886 10.17857,-0.79314 l 3.03572,-0.37189 v 9.20354 9.20354 l -10.89286,0.81952 c -41.61516,3.13092 -78.81953,17.44032 -111.96428,43.06328 -8.46128,6.54109 -24.44616,22.09645 -31.33619,30.49416 -25.46118,31.03266 -40.98533,66.35006 -47.00941,106.94635 -1.93993,13.07312 -1.74553,44.91819 0.35755,58.57143 11.22462,72.8706 56.25711,132.68836 121.77107,161.75148 14.46221,6.41568 31.3443,11.42689 50.50269,14.991 8.27393,1.53923 35.85675,2.48109 47.32952,1.61614 48.8771,-3.68492 93.42956,-24.36633 128.74394,-59.76341 29.63948,-29.70887 48.84998,-65.46426 57.01875,-106.1257 2.12339,-10.56955 3.12095,-18.48897 4.26991,-33.89808 l 0.85217,-11.42857 7.6751,-1.01538 c 4.2213,-0.55846 7.89262,-0.79784 8.1585,-0.53197 0.7286,0.72859 -1.10364,25.12119 -2.68405,35.73279 -5.92455,39.78034 -22.456,77.5631 -47.65598,108.91819 -34.09367,42.42105 -84.21031,71.64979 -137.27929,80.06325 -17.27948,2.73945 -39.76058,3.5927 -55.30138,2.09893 z"
       id="path2918"
       inkscape:connector-curvature="0"
       transform="matrix(0.26458333,0,0,0.26458333,0,87)" />
    <path
       style="fill:#ffffff;fill-opacity:1;stroke:#060606;stroke-width:0.71428573;stroke-opacity:1"
       d="M 404.4079,602.30029 C 363.9844,599.15662 323.19231,583.46865 288.81085,557.84356 277.8133,549.6469 254.49853,526.62416 246.45084,516.01413 223.38406,485.603 208.20489,450.54435 202.22656,413.87127 c -1.34805,-8.26946 -1.51669,-12.25632 -1.54087,-36.42857 -0.0248,-24.84447 0.10448,-27.86867 1.5273,-35.71429 9.20009,-50.73041 31.72692,-93.12613 67.86974,-127.73158 35.1947,-33.69765 83.73898,-55.81351 131.11089,-59.73166 5.10714,-0.42241 10.97321,-0.94804 13.03571,-1.16807 l 3.75,-0.40005 v 8.5111 8.5111 l -9.82143,0.82866 c -38.19467,3.22258 -69.46372,13.91165 -100.30842,34.28959 -10.75447,7.10507 -17.49676,12.68834 -29.41163,24.35565 -12.19441,11.94103 -18.88237,19.97515 -27.96775,33.59715 -15.42743,23.13081 -26.03646,49.28608 -31.82366,78.45734 -2.63506,13.28246 -3.5613,31.05731 -2.71165,52.03785 1.68995,41.73009 18.18081,84.85559 45.78271,119.72707 6.83662,8.6372 22.734,24.64412 31.26183,31.47724 21.12826,16.92949 48.22719,30.80964 73.92857,37.86642 16.94275,4.65194 25.7031,6.04315 43.4639,6.90239 39.14553,1.89381 72.99236,-5.26316 105.46468,-22.30069 29.41268,-15.4322 56.66888,-39.76787 75.85779,-67.72951 22.60721,-32.94274 33.7279,-67.38447 36.69466,-113.64663 l 0.4858,-7.5752 6.65342,-0.81765 c 3.6594,-0.44972 7.03204,-0.81766 7.49478,-0.81766 0.9563,0 0.5671,8.40304 -1.18645,25.61637 -5.5162,54.14842 -31.60595,106.10332 -71.53205,142.44824 -32.68309,29.7516 -73.74789,49.44929 -116.38099,55.82487 -13.78924,2.06211 -36.95537,3.01632 -49.51554,2.03954 z"
       id="path2920"
       inkscape:connector-curvature="0"
       transform="matrix(0.26458333,0,0,0.26458333,0,87)" />
    <path
       style="fill:#ffffff;fill-opacity:1;stroke:#060606;stroke-width:0.71428573;stroke-opacity:1"
       d="m 400.47933,601.27711 c -37.04974,-3.54658 -79.45035,-20.13046 -109.65655,-42.88923 -13.50632,-10.1763 -36.65745,-33.22158 -45.73386,-45.52477 -20.28998,-27.50329 -34.27186,-59.19848 -41.16977,-93.3267 l -2.01125,-9.95086 v -31.78571 -31.78571 l 2.03906,-9.64286 c 10.4815,-49.56769 31.6808,-88.06262 67.27923,-122.16952 29.36958,-28.13904 69.10104,-48.62058 109.40579,-56.39859 5.8538,-1.12967 32.3001,-4.28903 35.90248,-4.28903 0.45364,0 0.73059,2.97836 0.73059,7.85714 0,7.66969 -0.0384,7.85732 -1.60715,7.86479 -0.88392,0.004 -6.10714,0.48514 -11.60714,1.06874 -38.01701,4.03395 -67.34236,14.48648 -97.85714,34.87952 -10.00093,6.68363 -15.52807,11.32358 -27.75917,23.30341 -12.82064,12.55726 -19.72038,20.78964 -28.54354,34.05648 -16.52254,24.84394 -28.40697,55.52542 -33.15066,85.58354 -1.60017,10.13939 -1.80084,49.76476 -0.3058,60.38638 5.3893,38.28882 19.95397,72.77135 43.74632,103.57142 6.32478,8.18766 25.26259,27.36721 33.13059,33.5535 27.53266,21.64782 63.01527,37.23958 96.81083,42.5406 10.15779,1.59331 40.58466,2.22487 52.6294,1.09241 47.27882,-4.44519 88.75571,-24.36654 124.22574,-59.66561 16.8561,-16.77485 29.88308,-34.73882 39.89967,-55.0209 12.76787,-25.85302 19.18012,-50.78305 21.86283,-85 0.46202,-5.89285 0.89057,-10.77672 0.95232,-10.85302 0.32259,-0.3986 12.80789,-1.65008 13.14079,-1.31718 0.54128,0.54128 -1.82844,27.47928 -3.12868,35.56563 -6.15233,38.26209 -21.63101,73.75355 -45.71404,104.81886 -7.87614,10.15964 -24.52411,26.97019 -34.81156,35.15155 -26.54104,21.10744 -56.78554,35.87846 -88.69933,43.31963 -21.31833,4.97068 -49.39444,6.97856 -70,5.00609 z"
       id="path2922"
       inkscape:connector-curvature="0"
       transform="matrix(0.26458333,0,0,0.26458333,0,87)" />
    <path
       style="fill:#ffffff;fill-opacity:1;stroke:#060606;stroke-width:0.71428573;stroke-opacity:1"
       d="m 403.69362,600.93108 c -39.06391,-3.5812 -81.11197,-19.79932 -112.73507,-43.4824 -8.72076,-6.53113 -31.84622,-28.87828 -40.29057,-38.93455 -21.35276,-25.42873 -37.60924,-60.3088 -45.87693,-98.43403 l -2.526,-11.64832 V 377.82805 347.2243 l 2.46996,-10.96223 c 10.53138,-46.74063 26.85963,-78.49134 57.62676,-112.05679 29.32138,-31.98819 73.20968,-56.57897 116.5716,-65.3155 5.13436,-1.03446 33.42218,-4.66137 36.35608,-4.66137 1.12147,0 1.26131,0.79192 1.26131,7.14286 0,6.32391 -0.14331,7.14364 -1.25,7.14973 -3.70063,0.0204 -21.88901,2.37898 -30.89286,4.00612 -24.85777,4.49218 -46.89611,12.75557 -68.06227,25.52031 -17.55585,10.58746 -25.32057,16.839 -41.9778,33.79725 -17.18093,17.49142 -27.80682,32.32027 -37.79245,52.74087 -10.89419,22.2786 -18.24618,45.54443 -20.76568,65.71429 -1.30879,10.47746 -1.07657,51.29689 0.34539,60.71429 5.40456,35.79335 19.80074,70.00137 41.72722,99.15165 6.23944,8.29504 23.9422,26.69298 32.7923,34.08002 24.97787,20.84864 61.30068,37.61675 95.02842,43.86904 13.79543,2.55734 47.86058,3.15461 63.70487,1.11695 36.32442,-4.67151 70.75898,-19.44756 100,-42.91053 9.71353,-7.79412 26.69149,-24.74243 34.14111,-34.08148 22.62562,-28.3641 36.44117,-59.47645 42.60522,-95.94615 1.52118,-9.00007 3.96796,-30.81015 3.96796,-35.36958 0,-1.3828 0.47537,-1.66746 3.39286,-2.03172 1.86607,-0.23298 4.64064,-0.58469 6.16571,-0.78157 l 2.77286,-0.35796 -0.47683,5.91638 c -2.38479,29.58999 -4.88747,43.65635 -11.28303,63.41637 -11.48436,35.48265 -30.75419,66.30702 -57.86707,92.5652 -10.40352,10.07557 -17.84636,16.05002 -30.2045,24.24548 -30.20306,20.02955 -61.30274,31.58218 -96.07143,35.68778 -9.32463,1.10107 -36.29383,1.94877 -42.85714,1.34707 z"
       id="path2924"
       inkscape:connector-curvature="0"
       transform="matrix(0.26458333,0,0,0.26458333,0,87)" />
    <path
       style="fill:#ffffff;fill-opacity:1;stroke:#060606;stroke-width:0.71428573;stroke-opacity:1"
       d="m 400.47933,599.92768 c -39.34348,-4.78897 -78.64801,-20.28735 -108.54165,-42.79965 -8.67951,-6.53638 -35.68386,-32.89544 -42.92822,-41.90243 -16.00106,-19.8943 -30.86843,-49.33392 -38.87319,-76.9748 -1.23654,-4.26983 -3.35271,-12.69336 -4.7026,-18.71895 l -2.45434,-10.95563 V 377.90746 347.2387 l 2.15914,-9.54086 c 4.31187,-19.05338 10.07091,-37.11076 16.3696,-51.32657 14.63027,-33.01975 41.01487,-65.7619 70.73178,-87.77511 25.46263,-18.86179 61.54498,-34.79332 89.31091,-39.43367 5.2271,-0.87357 31.41054,-4.21979 33.01897,-4.21979 1.11774,0 1.26675,0.7464 1.26675,6.34536 v 6.34536 l -4.82143,0.50703 c -39.09496,4.11135 -66.89343,12.68051 -94.69452,29.19055 -14.65105,8.70071 -23.53168,15.58861 -36.45649,28.27597 -12.18611,11.96224 -19.7517,20.42611 -26.85292,30.04123 -15.42183,20.88128 -30.16067,54.74361 -35.73633,82.10383 -2.62457,12.879 -3.05798,20.55406 -2.66482,47.19067 0.36608,24.80206 0.4219,25.58386 2.55003,35.71428 7.38101,35.13535 21.69461,66.45845 42.27266,92.50716 6.22386,7.87846 29.10041,30.62284 36.07827,35.86982 28.4178,21.36868 68.23176,37.74957 99.61126,40.98365 11.04114,1.13794 44.1756,1.13637 53.21429,-0.003 41.44322,-5.22191 79.86471,-23.07476 111.09412,-51.6208 30.87951,-28.2262 50.29908,-58.63915 61.41409,-96.18048 4.35164,-14.69784 7.92189,-35.48563 9.67759,-56.34794 l 0.49337,-5.86252 3.30327,-0.43343 c 1.8168,-0.23839 4.1872,-0.599 5.26756,-0.80137 2.38942,-0.44758 2.3598,-0.91894 0.88695,14.10978 -3.47347,35.44278 -10.015,58.8465 -24.3731,87.19984 -5.71995,11.29536 -16.43848,27.93659 -24.29633,37.72166 -6.6094,8.23043 -23.40754,25.35787 -31.56542,32.18422 -8.69788,7.27821 -24.55351,17.8887 -36.11023,24.16475 -25.581,13.89213 -54.19895,22.66462 -81.51848,24.98852 -12.35323,1.05082 -36.30004,1.50004 -42.13054,0.79034 z"
       id="path2926"
       inkscape:connector-curvature="0"
       transform="matrix(0.26458333,0,0,0.26458333,0,87)" />
    <path
       style="fill:#ffffff;fill-opacity:1;stroke:#060606;stroke-width:0.71428573;stroke-opacity:1"
       d="m 390.47933,597.78011 c -41.29709,-7.47205 -79.27263,-24.54171 -105.13824,-47.25866 -11.75657,-10.32544 -35.88496,-35.36164 -40.82832,-42.36447 -13.94156,-19.74978 -27.16203,-47.3105 -33.62406,-70.09609 -1.21057,-4.26858 -3.32348,-12.58248 -4.69535,-18.47534 l -2.4943,-10.71428 -0.003,-30.84144 -0.003,-30.84144 2.14077,-9.26421 c 8.87162,-38.39203 21.37222,-66.69322 40.85674,-92.49911 16.3651,-21.67443 38.41529,-42.22042 59.14535,-55.11062 22.48802,-13.98332 52.38572,-26.16562 73.57142,-29.97785 5.81792,-1.0469 32.80899,-4.67962 34.7695,-4.67962 0.70356,0 0.94479,1.43649 0.94479,5.62609 v 5.62609 l -6.96429,0.84166 c -46.15125,5.57752 -78.80185,17.63189 -109.3405,40.36774 -9.5187,7.08663 -34.15312,31.47668 -42.36239,41.94217 -21.79899,27.7902 -39.22307,70.80283 -42.14363,104.03467 -1.07689,12.25355 -0.28313,52.74563 1.20266,61.35146 5.70687,33.0545 20.64285,67.95569 40.23948,94.02833 5.75907,7.66224 21.41096,24.13903 32.16078,33.85576 22.60165,20.42955 63.88264,39.9238 97.29755,45.94713 12.27698,2.21304 51.16598,2.84895 64.91034,1.06141 35.21054,-4.57934 71.30706,-20.08963 100,-42.96894 8.1897,-6.53035 28.46385,-26.91502 35.0937,-35.285 14.92318,-18.84007 24.99526,-36.9782 32.66918,-58.8317 6.44937,-18.3663 10.47003,-38.1016 13.0047,-63.83322 l 0.86056,-8.73635 2.57879,-0.41893 c 1.41833,-0.23041 3.46271,-0.58352 4.54307,-0.78469 2.39191,-0.44538 2.36836,-0.81501 0.87691,13.76254 -4.55242,44.49575 -15.42991,75.54671 -38.66232,110.36571 -8.2723,12.39791 -15.05181,20.28754 -29.99381,34.90522 -17.48077,17.10134 -33.41489,28.24176 -56.22283,39.3085 -21.25067,10.31112 -39.97013,16.11132 -63.63265,19.7165 -4.90436,0.74723 -14.44574,1.1851 -30.04387,1.37878 -20.49213,0.25445 -23.67012,0.13672 -30.71429,-1.1378 z"
       id="path2928"
       inkscape:connector-curvature="0"
       transform="matrix(0.26458333,0,0,0.26458333,0,87)" />
    <path
       style="fill:#ffffff;fill-opacity:1;stroke:#060606;stroke-width:0.71428573;stroke-opacity:1"
       d="m 397.26505,598.01777 c -9.41107,-1.00785 -27.18353,-5.19859 -40.71429,-9.6004 -30.56255,-9.94259 -56.04068,-24.48016 -75.87376,-43.29283 -8.26247,-7.83738 -23.93552,-23.88711 -30.17098,-30.89613 -7.01288,-7.88286 -14.65152,-19.98967 -22.48343,-35.63493 -9.78232,-19.54147 -14.52336,-32.4854 -19.9902,-54.57705 l -3.62449,-14.64665 v -31.32693 -31.32693 l 3.26467,-13.20804 c 11.04882,-44.70085 27.22181,-75.81665 55.03353,-105.88097 13.16258,-14.22868 29.7036,-28.07862 44.55895,-37.3096 20.61576,-12.81046 52.96106,-25.87591 72.49048,-29.28155 5.2835,-0.92137 32.61064,-4.66449 34.05368,-4.66449 0.32928,0 0.59869,2.25 0.59869,5 0,3.52225 -0.26388,5.00086 -0.89285,5.00291 -2.59125,0.008 -26.99084,3.87673 -34.09342,5.40512 -27.81824,5.98615 -50.80847,15.4263 -71.87686,29.51379 -11.66862,7.80227 -22.80013,17.52634 -37.64506,32.88526 -16.43757,17.00673 -23.90747,27.67637 -34.79042,49.69292 -10.26246,20.76128 -16.62084,39.5615 -19.9611,59.02027 -3.14117,18.29901 -2.56352,62.19544 1.04649,79.52408 6.40836,30.76113 20.78734,63.00973 38.85454,87.14146 6.52033,8.70895 33.15142,35.59595 41.01966,41.41382 21.5636,15.94437 50.044,29.26124 78.01077,36.47628 13.63204,3.51688 21.66252,4.21486 48.89968,4.25019 19.95824,0.0259 25.21181,-0.18511 31.66242,-1.27169 34.4326,-5.79999 68.23536,-20.68845 95.1233,-41.89714 9.15754,-7.2233 32.08993,-30.74807 39.15487,-40.16631 20.17053,-26.88925 32.2698,-55.02923 38.63171,-89.8481 1.52382,-8.33992 4.71342,-32.65078 4.71342,-35.92534 0,-1.18149 0.77082,-1.51421 5.2752,-2.27708 l 2.77521,-0.47001 -0.50364,5.94336 c -3.73709,44.10014 -13.73001,76.03719 -34.18603,109.25745 -9.02132,14.65049 -15.29322,22.57034 -28.69411,36.23354 -21.28938,21.70608 -35.35766,32.15769 -59.56651,44.2531 -29.26057,14.6194 -52.88431,20.99239 -82.60012,22.28309 -14.70151,0.63856 -32.54339,0.73634 -37.5,0.20553 z"
       id="path2930"
       inkscape:connector-curvature="0"
       transform="matrix(0.26458333,0,0,0.26458333,0,87)" />
    <path
       style="fill:#000000;stroke:#000000;stroke-width:0.26458332px;stroke-linecap:butt;stroke-linejoin:miter;stroke-opacity:1"
       d="m 106.02223,128.42385 9e-5,-10.0176 0.18899,22.67857 13.04018,-12.28423 -13.22917,-10.58333 v 22.86756 l 13.04018,-12.28423 -13.04018,-10.77232"
       id="path2942"
       inkscape:connector-curvature="0" />
  </g>
</svg>
