<?xml version="1.0" encoding="UTF-8" standalone="no"?>
<!-- Created with Inkscape (http://www.inkscape.org/) -->

<svg
   xmlns:osb="http://www.openswatchbook.org/uri/2009/osb"
   xmlns:dc="http://purl.org/dc/elements/1.1/"
   xmlns:cc="http://creativecommons.org/ns#"
   xmlns:rdf="http://www.w3.org/1999/02/22-rdf-syntax-ns#"
   xmlns:svg="http://www.w3.org/2000/svg"
   xmlns="http://www.w3.org/2000/svg"
   xmlns:sodipodi="http://sodipodi.sourceforge.net/DTD/sodipodi-0.dtd"
   xmlns:inkscape="http://www.inkscape.org/namespaces/inkscape"
   width="210mm"
   height="210mm"
   viewBox="0 0 210 210"
   version="1.1"
   id="svg873"
   inkscape:version="0.92.4 (f8dce91, 2019-08-02)"
   sodipodi:docname="undo.svg">
  <defs
     id="defs867">
    <linearGradient
       id="linearGradient2890"
       osb:paint="solid">
      <stop
         style="stop-color:#0d0d0d;stop-opacity:1;"
         offset="0"
         id="stop2888" />
    </linearGradient>
  </defs>
  <sodipodi:namedview
     id="base"
     pagecolor="#ffffff"
     bordercolor="#666666"
     borderopacity="1.0"
     inkscape:pageopacity="0.0"
     inkscape:pageshadow="2"
     inkscape:zoom="1.4"
     inkscape:cx="392.97933"
     inkscape:cy="474.32952"
     inkscape:document-units="mm"
     inkscape:current-layer="layer1"
     showgrid="false"
     inkscape:window-width="1920"
     inkscape:window-height="1022"
     inkscape:window-x="1280"
     inkscape:window-y="0"
     inkscape:window-maximized="1" />
  <metadata
     id="metadata870">
    <rdf:RDF>
      <cc:Work
         rdf:about="">
        <dc:format>image/svg+xml</dc:format>
        <dc:type
           rdf:resource="http://purl.org/dc/dcmitype/StillImage" />
        <dc:title></dc:title>
      </cc:Work>
    </rdf:RDF>
  </metadata>
  <g
     inkscape:label="Layer 1"
     inkscape:groupmode="layer"
     id="layer1"
     transform="translate(0,-87)">
    <path
       style="fill:none;fill-opacity:1;stroke:#060606;stroke-width:0.26458332;stroke-opacity:1"
       d="m 52.171298,185.8742 a 59.342263,60.098212 0 0 0 -0.01058,1.13474 v 0 0 a 59.342263,60.098212 0 0 0 59.342262,60.09821 59.342263,60.098212 0 0 0 59.34226,-60.09821 59.342263,60.098212 0 0 0 -58.96419,-60.09699"
       id="path2899"
       inkscape:connector-curvature="0" />
    <path
       inkscape:connector-curvature="0"
       style="fill:none;fill-opacity:1;stroke:#060606;stroke-width:0.24177118;stroke-opacity:1"
       d="m 111.88102,126.91195 -0.0898,5.63034 a 54.12184,55.022109 0 0 1 53.77703,55.02099 54.12184,55.022109 0 0 1 -54.12184,55.02211 54.12184,55.022109 0 0 1 -54.121288,-55.02211 v 0 0 a 54.12184,55.022109 0 0 1 0.009,-1.03889 l -5.16282,-0.65019"
       id="path2899-3" />
    <path
       style="fill:#ffffff;fill-opacity:1;stroke:#060606;stroke-width:0.1889881;stroke-opacity:1"
       d="m 116.70789,246.66161 c 24.10626,-2.14863 44.77964,-19.3348 51.5439,-42.84941 1.67747,-5.83138 2.25563,-10.11936 2.25955,-16.75817 0.003,-5.1662 -0.19045,-7.48797 -0.94501,-11.33928 -3.60942,-18.42258 -15.15741,-33.85012 -31.5822,-42.19226 -7.70482,-3.91327 -15.54917,-5.95295 -24.38736,-6.34118 l -1.55915,-0.0685 v 2.58781 2.5878 l 2.31511,0.12971 c 26.85135,1.50432 48.4654,22.53783 51.16372,49.78947 0.28534,2.88175 0.23598,8.63219 -0.0992,11.5555 -2.703,23.57556 -19.58546,42.62645 -42.27338,47.70307 -3.92743,0.8788 -5.74673,1.08573 -10.44481,1.18798 -5.00829,0.109 -7.86294,-0.12196 -12.09277,-0.9784 -19.161711,-3.87981 -35.268573,-18.64243 -40.996114,-37.57466 -1.400683,-4.62993 -2.088817,-8.58825 -2.399192,-13.80079 -0.112501,-1.8894 -0.260315,-3.48684 -0.328475,-3.54988 -0.125063,-0.11566 -3.435858,-0.54684 -4.198921,-0.54684 -0.409366,0 -0.411046,0.0154 -0.282988,2.59858 0.489302,9.87025 2.578621,17.88326 6.787899,26.03311 8.574264,16.60119 24.576486,28.27882 42.832731,31.2572 4.62242,0.75412 10.19042,0.96989 14.68664,0.56913 z"
       id="path2916"
       inkscape:connector-curvature="0" />
    <path
       style="fill:#ffffff;fill-opacity:1;stroke:#060606;stroke-width:0.1889881;stroke-opacity:1"
       d="m 116.84206,246.46662 c 11.25965,-1.08228 22.05692,-5.46751 31.1033,-12.6324 2.54675,-2.01707 7.43967,-6.9094 9.43685,-9.43571 6.71659,-8.49609 11.0023,-18.49175 12.52741,-29.21799 0.1607,-1.1302 0.24146,-3.98367 0.24071,-8.50446 -0.001,-6.29359 -0.0341,-6.98773 -0.44159,-9.26042 -2.30199,-12.84043 -7.8996,-23.79616 -16.6607,-32.6086 -1.50718,-1.51601 -3.59077,-3.43947 -4.63021,-4.27436 -9.54137,-7.66376 -21.28267,-12.33526 -32.69494,-13.00829 -1.03943,-0.0613 -2.25132,-0.15573 -2.69308,-0.20985 l -0.8032,-0.0984 v 2.43511 2.4351 l 2.88207,0.21683 c 11.01068,0.82839 20.85433,4.61442 29.62388,11.39383 2.23871,1.73066 6.46805,5.84635 8.29103,8.06824 6.73661,8.21073 10.84404,17.55512 12.43791,28.29622 0.51327,3.45893 0.46184,11.88461 -0.0946,15.49703 -2.96985,19.28034 -14.88469,35.10713 -32.2186,42.79674 -3.82646,1.69749 -8.29318,3.02337 -13.36217,3.96637 -2.18914,0.40726 -9.48709,0.65646 -12.5226,0.42761 -12.932064,-0.97497 -24.719902,-6.44693 -34.063498,-15.81241 -7.842113,-7.86047 -12.924891,-17.32075 -15.086211,-28.07909 -0.561814,-2.79652 -0.825752,-4.89187 -1.129747,-8.96886 l -0.22547,-3.02381 -2.030704,-0.26866 c -1.116885,-0.14776 -2.088255,-0.21109 -2.158603,-0.14075 -0.192775,0.19278 0.292005,6.64665 0.710155,9.4543 1.567537,10.52522 5.941483,20.52191 12.608978,28.81794 9.020617,11.2239 22.280644,18.95734 36.32181,21.1834 4.57186,0.72482 10.51999,0.95057 14.63182,0.55534 z"
       id="path2918"
       inkscape:connector-curvature="0" />
    <path
       style="fill:#ffffff;fill-opacity:1;stroke:#060606;stroke-width:0.1889881;stroke-opacity:1"
       d="m 116.00637,246.35862 c 10.69539,-0.83177 21.48829,-4.98254 30.58506,-11.76251 2.90976,-2.1687 9.07846,-8.26014 11.20775,-11.06737 6.10308,-8.04628 10.11924,-17.32222 11.70101,-27.0253 0.35667,-2.18796 0.40129,-3.24282 0.40768,-9.63839 0.007,-6.57344 -0.0276,-7.37359 -0.40409,-9.44941 -2.43419,-13.42242 -8.39442,-24.63962 -17.95721,-33.79565 -9.31193,-8.91583 -22.15593,-14.76732 -34.68975,-15.804 -1.35127,-0.11176 -2.90333,-0.25083 -3.44903,-0.30905 l -0.99219,-0.10585 v 2.2519 2.25189 l 2.59859,0.21925 c 10.10567,0.85264 18.37894,3.68079 26.53993,9.07246 2.84545,1.87988 4.62935,3.35712 7.78183,6.4441 3.22644,3.15939 4.99596,5.28509 7.3998,8.88924 4.08184,6.12003 6.88881,13.04028 8.42001,20.75851 0.69719,3.51431 0.94226,8.21724 0.71746,13.76834 -0.44714,11.04109 -4.81034,22.45138 -12.11335,31.67779 -1.80885,2.28526 -6.01503,6.52042 -8.27135,8.32835 -5.59019,4.47927 -12.76012,8.15172 -19.56027,10.01883 -4.48277,1.23082 -6.80061,1.59891 -11.49983,1.82626 -10.35725,0.50107 -19.312557,-1.39255 -27.904192,-5.9004 -7.782104,-4.0831 -14.993641,-10.52191 -20.070706,-17.92009 -5.981491,-8.7161 -8.92384,-17.82881 -9.708796,-30.06901 l -0.128534,-2.00427 -1.760384,-0.21634 c -0.968216,-0.11899 -1.860561,-0.21634 -1.982994,-0.21634 -0.253021,0 -0.150045,2.22331 0.313915,6.77767 1.459494,14.32677 8.362407,28.07317 18.926188,37.68943 8.647401,7.87178 19.512462,13.08346 30.792473,14.77033 3.6484,0.5456 9.77777,0.79807 13.10098,0.53963 z"
       id="path2920"
       inkscape:connector-curvature="0" />
    <path
       style="fill:#ffffff;fill-opacity:1;stroke:#060606;stroke-width:0.1889881;stroke-opacity:1"
       d="m 117.04581,246.0879 c 9.80274,-0.93837 21.02124,-5.32618 29.01329,-11.34778 3.57355,-2.69247 9.69895,-8.78987 12.10042,-12.04509 5.36839,-7.27691 9.06776,-15.66293 10.89283,-24.69269 l 0.53215,-2.63283 v -8.40997 -8.40997 l -0.5395,-2.55134 c -2.77323,-13.11478 -8.38222,-23.2999 -17.80097,-32.32402 -7.7707,-7.44512 -18.28298,-12.86419 -28.94694,-14.92212 -1.54882,-0.2989 -8.54607,-1.13481 -9.4992,-1.13481 -0.12003,0 -0.1933,0.78802 -0.1933,2.07887 0,2.02927 0.0102,2.07891 0.42522,2.08089 0.23387,0.001 1.61585,0.12836 3.07106,0.28277 10.05866,1.06732 17.81766,3.83288 25.89136,9.22854 2.64608,1.76838 4.10847,2.99603 7.34462,6.16569 3.39213,3.32245 5.21768,5.5006 7.55214,9.01078 4.37159,6.57329 7.51601,14.6911 8.77111,22.64398 0.42338,2.68271 0.47648,13.16693 0.0809,15.97723 -1.42591,10.13058 -5.27948,19.25408 -11.57454,27.40327 -1.67343,2.16632 -6.68406,7.24091 -8.7658,8.8777 -7.28469,5.72765 -16.67279,9.85297 -25.61454,11.25553 -2.68758,0.42156 -10.73802,0.58866 -13.92486,0.28903 -12.509186,-1.17612 -23.483279,-6.44698 -32.868058,-15.78652 -4.459843,-4.43835 -7.906565,-9.19131 -10.556788,-14.55761 -3.378165,-6.84028 -5.07474,-13.43635 -5.78454,-22.48959 -0.122243,-1.55915 -0.23563,-2.85134 -0.251968,-2.87153 -0.08535,-0.10546 -3.388754,-0.43658 -3.476834,-0.3485 -0.143214,0.14321 0.483775,7.27056 0.827797,9.41007 1.627804,10.12351 5.723204,19.51396 12.095173,27.73333 2.083895,2.68807 6.48867,7.13586 9.210558,9.30051 7.022317,5.58468 15.024507,9.49284 23.468364,11.46165 5.640476,1.31516 13.068946,1.84641 18.520836,1.32453 z"
       id="path2922"
       inkscape:connector-curvature="0" />
    <path
       style="fill:#ffffff;fill-opacity:1;stroke:#060606;stroke-width:0.1889881;stroke-opacity:1"
       d="m 116.19536,245.99635 c 10.33566,-0.94753 21.46087,-5.23857 29.82782,-11.50472 2.30737,-1.72803 8.42598,-7.64071 10.66021,-10.30143 5.64959,-6.72802 9.95078,-15.95671 12.13827,-26.04401 l 0.66834,-3.08195 v -8.09724 -8.09724 l -0.65351,-2.90042 c -2.78643,-12.36679 -7.10661,-20.7675 -15.24708,-29.64836 -7.75795,-8.46354 -19.37006,-14.96985 -30.8429,-17.28139 -1.35847,-0.2737 -8.84295,-1.23332 -9.61921,-1.23332 -0.29673,0 -0.33373,0.20953 -0.33373,1.88988 0,1.6732 0.0379,1.89009 0.33073,1.8917 0.97913,0.005 5.79147,0.62944 8.17374,1.05995 6.57695,1.18856 12.40793,3.37491 18.00814,6.75225 4.64499,2.80126 6.6994,4.45532 11.10663,8.94219 4.54579,4.62794 7.35722,8.5514 9.99925,13.95435 2.88242,5.89455 4.82764,12.0503 5.49425,17.38691 0.34629,2.77216 0.28485,13.5723 -0.0914,16.06399 -1.42996,9.47032 -5.23895,18.52119 -11.04033,26.23387 -1.65085,2.19473 -6.33471,7.06252 -8.67629,9.01701 -6.60873,5.5162 -16.21914,9.95276 -25.14294,11.60701 -3.65004,0.67663 -12.66311,0.83466 -16.85525,0.29553 -9.610833,-1.236 -18.721643,-5.1455 -26.45833,-11.35341 -2.570038,-2.0622 -7.062123,-6.54644 -9.033168,-9.01739 -5.986362,-7.50467 -9.641726,-15.73648 -11.272631,-25.38576 -0.402479,-2.38126 -1.049856,-8.15185 -1.049856,-9.3582 0,-0.36586 -0.125775,-0.44118 -0.897694,-0.53756 -0.493732,-0.0616 -1.227836,-0.15469 -1.631345,-0.20679 l -0.733652,-0.0947 0.126161,1.56538 c 0.630976,7.82902 1.293143,11.55074 2.985302,16.77891 3.03857,9.38812 8.137046,17.54374 15.310662,24.49121 2.752598,2.66583 4.721849,4.24657 7.991607,6.41495 7.991226,5.29949 16.219683,8.35612 25.418894,9.44239 2.46715,0.29133 9.60275,0.51562 11.33929,0.35642 z"
       id="path2924"
       inkscape:connector-curvature="0" />
    <path
       style="fill:#ffffff;fill-opacity:1;stroke:#060606;stroke-width:0.1889881;stroke-opacity:1"
       d="m 117.04581,245.73086 c 10.40963,-1.26708 20.80895,-5.36769 28.71831,-11.32407 2.29645,-1.72942 9.44135,-8.70359 11.35809,-11.08669 4.23361,-5.2637 8.16727,-13.05293 10.2852,-20.36624 0.32717,-1.12973 0.88707,-3.35846 1.24423,-4.95273 l 0.64937,-2.89867 v -8.11445 -8.11444 l -0.57127,-2.52435 c -1.14085,-5.04121 -2.66459,-9.81889 -4.33112,-13.58016 -3.87093,-8.73647 -10.85185,-17.3995 -18.71445,-23.22383 -6.73699,-4.99051 -16.28378,-9.20573 -23.63018,-10.43349 -1.383,-0.23113 -8.3107,-1.11648 -8.73627,-1.11648 -0.29573,0 -0.33516,0.19748 -0.33516,1.67887 v 1.67888 l 1.27567,0.13415 c 10.34388,1.08779 17.69889,3.35505 25.05459,7.72333 3.87643,2.30207 6.22609,4.12449 9.64578,7.48135 3.22424,3.16501 5.22597,5.40441 7.10484,7.94841 4.08036,5.52484 7.98001,14.48425 9.45523,21.72331 0.69442,3.40757 0.8091,5.43826 0.70507,12.48586 -0.0969,6.56221 -0.11163,6.76906 -0.67469,9.4494 -1.9529,9.29623 -5.74004,17.5838 -11.18465,24.47586 -1.64672,2.08451 -7.69948,8.10229 -9.5457,9.49055 -7.51888,5.6538 -18.05299,9.98791 -26.35548,10.84359 -2.9213,0.30108 -11.68813,0.30067 -14.07962,-7.9e-4 -10.965182,-1.38163 -21.130868,-6.1052 -29.393649,-13.658 -8.170204,-7.46818 -13.308298,-15.51494 -16.249144,-25.44775 -1.151372,-3.88881 -2.096,-9.38891 -2.560529,-14.90873 l -0.130538,-1.55113 -0.87399,-0.11467 c -0.480695,-0.0631 -1.107863,-0.15849 -1.393709,-0.21203 -0.6322,-0.11842 -0.624363,-0.24314 -0.234672,3.73321 0.919022,9.37757 2.649802,15.5698 6.448716,23.07162 1.513404,2.98857 4.349348,7.39156 6.428404,9.98053 1.748737,2.17763 6.193245,6.70927 8.351684,8.5154 2.301314,1.9257 6.496449,4.73306 9.554165,6.39359 6.768306,3.67563 14.340139,5.99669 21.568432,6.61155 3.26846,0.27803 9.60438,0.39689 11.14704,0.20911 z"
       id="path2926"
       inkscape:connector-curvature="0" />
    <path
       style="fill:#ffffff;fill-opacity:1;stroke:#060606;stroke-width:0.1889881;stroke-opacity:1"
       d="m 119.69164,245.16265 c 10.92652,-1.97698 20.97422,-6.49333 27.81783,-12.50385 3.11059,-2.73194 9.49456,-9.3561 10.80249,-11.20893 3.6887,-5.22547 7.18662,-12.51757 8.89636,-18.54626 0.3203,-1.1294 0.87934,-3.32912 1.24232,-4.88827 l 0.65995,-2.83482 7.9e-4,-8.16013 7.9e-4,-8.16013 -0.56641,-2.45116 c -2.34728,-10.15789 -5.65473,-17.64591 -10.81001,-24.47372 -4.32993,-5.73469 -10.16405,-11.17082 -15.64887,-14.58135 -5.94996,-3.69975 -13.86039,-6.92299 -19.46578,-7.93164 -1.53932,-0.27699 -8.68071,-1.23815 -9.19943,-1.23815 -0.18615,0 -0.24997,0.38007 -0.24997,1.48857 v 1.48857 l 1.84263,0.22269 c 12.21086,1.47572 20.84966,4.6651 28.92968,10.68063 2.51849,1.87501 9.03634,8.32821 11.20838,11.0972 5.76765,7.35282 10.37777,18.73325 11.1505,27.52584 0.28493,3.24209 0.0749,13.95561 -0.3182,16.23257 -1.50994,8.74567 -5.46176,17.97995 -10.6467,24.87833 -1.52375,2.0273 -5.66498,6.38679 -8.5092,8.95767 -5.98002,5.40532 -16.90229,10.56317 -25.74331,12.15685 -3.24829,0.58553 -13.53767,0.75378 -17.1742,0.28083 -9.31612,-1.21162 -18.866657,-5.31538 -26.458331,-11.36887 -2.166858,-1.72782 -7.53106,-7.12126 -9.285208,-9.33582 -3.948424,-4.98477 -6.613329,-9.78382 -8.64372,-15.56589 -1.706396,-4.85941 -2.770196,-10.08105 -3.440827,-16.8892 l -0.22769,-2.3115 -0.682305,-0.11084 c -0.375266,-0.061 -0.916175,-0.15439 -1.20202,-0.20761 -0.63286,-0.11784 -0.626629,-0.21564 -0.232016,3.64134 1.204494,11.77283 4.082497,19.9884 10.229405,29.20092 2.188713,3.28028 3.982458,5.36775 7.935862,9.23534 4.625121,4.52473 8.841023,7.4723 14.875624,10.40038 5.622573,2.72815 10.57543,4.26278 16.836136,5.21665 1.29761,0.19771 3.8221,0.31356 7.94911,0.36481 5.42188,0.0673 6.26272,0.0362 8.12649,-0.30105 z"
       id="path2928"
       inkscape:connector-curvature="0" />
    <path
       style="fill:#ffffff;fill-opacity:1;stroke:#060606;stroke-width:0.1889881;stroke-opacity:1"
       d="m 117.89625,245.22553 c 2.49001,-0.26666 7.19231,-1.37546 10.77232,-2.5401 8.08635,-2.63065 14.82743,-6.47705 20.07494,-11.45456 2.18611,-2.07364 6.33294,-6.32014 7.98274,-8.1746 1.85549,-2.08568 3.87654,-5.28894 5.94874,-9.42841 2.58823,-5.17035 3.84263,-8.5951 5.28907,-14.44018 l 0.95898,-3.87526 v -8.28858 -8.28859 l -0.86378,-3.49462 c -2.92333,-11.8271 -7.20244,-20.05983 -14.56095,-28.01434 -3.4826,-3.76468 -7.85908,-7.42914 -11.78956,-9.8715 -5.45458,-3.38944 -14.01261,-6.84634 -19.17977,-7.74741 -1.39793,-0.24378 -8.62823,-1.23415 -9.01004,-1.23415 -0.0871,0 -0.1584,0.59531 -0.1584,1.32292 0,0.93193 0.0698,1.32314 0.23623,1.32368 0.6856,0.002 7.14133,1.02572 9.02055,1.43011 7.36025,1.58383 13.44308,4.08154 19.01742,7.80886 3.08733,2.06435 6.03254,4.63717 9.96026,8.70089 4.34911,4.49969 6.32552,7.3227 9.20496,13.14792 2.71528,5.49308 4.3976,10.46731 5.28138,15.61578 0.8311,4.84161 0.67826,16.45587 -0.27689,21.04074 -1.69554,8.13888 -5.49998,16.67133 -10.28026,23.05618 -1.72517,2.30424 -8.77131,9.41809 -10.85312,10.95741 -5.70537,4.21861 -13.24081,7.74203 -20.64035,9.65101 -3.60681,0.93051 -5.73154,1.11518 -12.93804,1.12453 -5.28062,0.007 -6.67062,-0.049 -8.37735,-0.33647 -9.110288,-1.53458 -18.053935,-5.47382 -25.168036,-11.08528 -2.422932,-1.91117 -8.49046,-8.13543 -10.359725,-10.62734 -5.336786,-7.11445 -8.538052,-14.55982 -10.221307,-23.77231 -0.403177,-2.2066 -1.247092,-8.63885 -1.247092,-9.50524 0,-0.31261 -0.203946,-0.40064 -1.39573,-0.60248 l -0.734275,-0.12436 0.133255,1.57252 c 0.988772,11.66816 3.632732,20.11817 9.045054,28.9077 2.386891,3.87627 4.046331,5.97173 7.591983,9.58679 5.632815,5.74306 9.355047,8.50839 15.760306,11.70863 7.741859,3.86805 13.992307,5.55424 21.854617,5.89573 3.88977,0.16896 8.61044,0.19483 9.92187,0.0544 z"
       id="path2930"
       inkscape:connector-curvature="0" />
    <path
       style="fill:#000000;stroke:#000000;stroke-width:0.26458332px;stroke-linecap:butt;stroke-linejoin:miter;stroke-opacity:1"
       d="m 116.98373,128.42385 -9e-5,-10.0176 -0.18899,22.67857 -13.04018,-12.28423 13.22917,-10.58333 v 22.86756 l -13.04018,-12.28423 13.04018,-10.77232"
       id="path2942"
       inkscape:connector-curvature="0" />
  </g>
</svg>
